<?xml version="1.0" encoding="iso-8859-1"?>
<!-- Generator: Adobe Illustrator 19.0.0, SVG Export Plug-In . SVG Version: 6.00 Build 0)  -->
<svg xmlns="http://www.w3.org/2000/svg" xmlns:xlink="http://www.w3.org/1999/xlink" version="1.1" id="Layer_1" x="0px" y="0px" viewBox="0 0 488 488" style="enable-background:new 0 0 488 488;" xml:space="preserve" width="512px" height="512px">
<g transform="translate(0 -540.36)">
	<g>
		<g>
			<path d="M377.6,784.234c-1.7-1.6-3.4-3.199-5.2-4.799c8.1-7.398,15.5-14.896,22.1-22.293c29.3-32.89,39-60.582,28.1-80.076     c0-0.1-0.1-0.2-0.1-0.3c-11.4-18.994-40.3-24.393-83.7-15.595c-8.5,1.7-17.3,3.999-26.4,6.698c-2.6-10.397-5.5-20.094-8.8-29.191     c-14.9-40.688-36.1-63.181-59.7-63.181c-23.6,0-44.8,22.393-59.7,63.181c-3.3,8.997-6.2,18.794-8.8,29.191     c-9.1-2.699-17.9-4.899-26.4-6.698c-43.4-8.797-72.3-3.399-83.7,15.595c0,0.1-0.1,0.2-0.1,0.3     c-10.9,19.494-1.2,47.186,28.1,80.076c6.6,7.398,14,14.896,22.1,22.293c-1.7,1.6-3.5,3.199-5.2,4.799     c-18,17.095-40.9,42.687-47.5,66.98c-3.1,11.497-2.3,21.594,2.5,29.991c7.9,13.496,24.2,20.294,48,20.294     c10.5,0,22.4-1.3,35.6-3.999c8.5-1.7,17.4-3.899,26.5-6.598c2.5,10.197,5.4,19.894,8.7,28.792     c14.9,40.988,36.1,63.581,59.7,63.581c23.6,0,44.8-22.593,59.7-63.581c3.2-8.997,6.1-18.595,8.7-28.792     c9.2,2.699,18,4.899,26.5,6.598c13.3,2.699,25.2,3.999,35.6,3.999c23.8,0,40.2-6.898,48.1-20.394     c4.8-8.298,5.6-18.395,2.5-29.991C418.5,826.922,395.6,801.429,377.6,784.234z M108.4,743.846L108.4,743.846     c-21.7-24.393-31.5-46.086-25.7-56.883c7.5-12.196,40.5-13.796,88.5,0.6c-3.2,16.695-5.5,34.69-6.8,53.284     c-12,8.298-23.3,16.795-33.7,25.393C122.5,758.742,115,751.244,108.4,743.846z M163.3,792.732c-5.9-4.399-11.7-8.797-17.1-13.296     c5.4-4.399,11.1-8.797,17.1-13.196c-0.1,4.299-0.2,8.597-0.2,12.896C163.1,783.634,163.2,788.233,163.3,792.732z M145.1,877.907     c-32.3,6.498-56.2,3.899-62.4-6.698c-2-3.599-2.2-8.497-0.5-14.796c4.2-15.495,20.5-38.389,48.6-63.781     c10.4,8.597,21.8,17.195,33.8,25.492c1.3,18.595,3.6,36.489,6.8,53.184C162.3,874.008,153.5,876.307,145.1,877.907z      M302.3,726.851c-6.7-4.199-13.5-8.298-20.5-12.296c-5.1-2.799-10.1-5.598-15.1-8.298c10.7-4.799,21-8.897,30.9-12.396     C299.5,704.258,301.1,715.255,302.3,726.851z M244,595.59c18.1,0,37.4,29.691,49.4,78.577c-16,5.598-32.6,12.596-49.4,20.594     c-16.8-7.998-33.4-14.996-49.4-20.594C206.6,625.281,225.9,595.59,244,595.59z M221.3,706.257c-5,2.699-10,5.398-15,8.298     c-7,3.999-13.9,8.098-20.6,12.296c1.2-11.597,2.8-22.593,4.7-32.99C200.2,697.36,210.5,701.559,221.3,706.257z M185.8,832.12     c6.7,4.199,13.5,8.298,20.5,12.196c5,2.899,10,5.598,15,8.298c-10.4,4.599-20.7,8.797-30.8,12.396     C188.6,854.714,187,843.717,185.8,832.12z M244,963.282c-18,0-37.4-29.691-49.3-78.577c15.9-5.598,32.5-12.496,49.3-20.594     c16.8,7.998,33.4,14.996,49.3,20.594C281.4,933.59,262,963.282,244,963.282z M297.5,865.011c-10-3.599-20.3-7.698-30.8-12.396     c5-2.699,10-5.398,15-8.298c7-3.999,13.8-7.998,20.5-12.196C301,843.717,299.4,854.714,297.5,865.011z M304.3,807.128     c-10.5,6.798-21.3,13.496-32.5,19.894c-9.3,5.298-18.6,10.297-27.8,14.896c-9.2-4.599-18.5-9.597-27.8-14.896     c-11.2-6.398-22-13.096-32.3-19.894c-0.5-9.097-0.7-18.395-0.7-27.992c0-9.297,0.2-18.395,0.7-27.192     c10.1-6.698,20.8-13.296,32.4-19.894c9.5-5.398,18.8-10.397,27.8-14.896c9,4.499,18.3,9.497,27.8,14.896     c11.5,6.598,22.3,13.196,32.4,19.894c0.5,8.797,0.7,17.895,0.7,27.192C305,788.733,304.7,798.03,304.3,807.128z M405.3,686.963     L405.3,686.963c5.8,10.797-4,32.49-25.7,56.883c-6.6,7.398-14.1,14.896-22.4,22.393c-10.4-8.597-21.7-17.095-33.7-25.393     c-1.3-18.695-3.6-36.589-6.8-53.284C364.8,673.167,397.8,674.766,405.3,686.963z M324.7,766.24c6,4.399,11.8,8.897,17.1,13.196     c-5.5,4.499-11.2,8.897-17.1,13.296c0.1-4.499,0.2-9.097,0.2-13.596C324.9,774.737,324.8,770.438,324.7,766.24z M405.3,871.109     L405.3,871.109c-6.2,10.697-30.2,13.296-62.5,6.798c-8.4-1.7-17.1-3.899-26.2-6.598c3.2-16.695,5.5-34.59,6.8-53.184     c12-8.298,23.3-16.795,33.8-25.492c28.1,25.393,44.3,48.286,48.6,63.781C407.5,862.711,407.3,867.61,405.3,871.109z" fill="#ee2a5d"/>
			<path d="M127.4,636.17c19.4,0,35.2-15.795,35.2-35.19c0-19.394-15.8-35.19-35.2-35.19c-19.8,0-35.9,15.795-35.9,35.19     C91.5,620.375,107.6,636.17,127.4,636.17z M127.4,585.685c8.2,0,15.1,6.998,15.2,15.196c0,8.198-7,15.196-15.2,15.196     c-8.8,0-15.9-6.798-15.9-15.196C111.5,592.483,118.6,585.685,127.4,585.685z" fill="#ee2a5d"/>
			<path d="M457.4,769.032c-16.9,0-30.6,13.696-30.6,30.591c0,16.895,13.7,30.691,30.6,30.691c16.9,0,30.6-13.796,30.6-30.691     C488,782.728,474.3,769.032,457.4,769.032z M457.4,810.32c-6,0-10.6-4.699-10.6-10.697c0-5.898,4.7-10.597,10.6-10.597     c6,0,10.6,4.699,10.6,10.597C468,805.621,463.4,810.32,457.4,810.32z" fill="#ee2a5d"/>
			<path d="M334.1,602.28l18.3,2.599l-8.3,16.695c-0.8,1.5-1.1,2.999-1.1,4.499c0,3.699,2,7.298,5.5,8.997c1.5,0.8,3,1.1,4.5,1.1     l0,0c3.7,0,7.2-1.999,9-5.698l8.2-16.395l13,13.496c3.8,3.999,10.1,4.099,14.1,0.3c2.1-1.999,3.1-4.599,3.1-7.198     c0-2.499-0.9-4.999-2.8-6.898l-13.4-13.896l16.8-8.397c3.5-1.8,5.5-5.299,5.5-8.997c0-1.5-0.4-3.099-1.1-4.499     c-2.5-4.999-8.5-6.998-13.4-4.499l-16.8,8.397l-3.1-18.695c-0.9-5.398-6-9.097-11.5-8.198c-4.9,0.9-8.4,5.098-8.4,9.897     c0,0.5,0,1,0.1,1.6l3.1,18.595l-18.5-2.599c-5.4-0.8-10.5,2.999-11.3,8.497c-0.1,0.5-0.1,0.9-0.1,1.399     C325.5,597.281,329.1,601.58,334.1,602.28z" fill="#ee2a5d"/>
			<path d="M68.2,787.327L43,762.134c-3.9-3.899-10.2-3.899-14.1-0.1L3,787.227c-1.9,1.899-3,4.399-3,7.098     c0,2.599,1,5.198,2.9,7.098l25.9,25.992c1.9,1.799,4.4,2.899,7.1,2.899c2.8,0,5.3-1.1,7.2-2.999l25.2-25.992     C72.1,797.424,72,791.226,68.2,787.327z M35.8,806.021l-11.6-11.597l11.6-11.297L47,794.424L35.8,806.021z" fill="#ee2a5d"/>
			<path d="M378.4,945.681c-3.9-3.899-10.2-3.899-14.1-0.1l-25.9,25.193c-1.9,1.899-3,4.399-3,7.098c0,2.599,1,5.198,2.9,7.098     l25.9,25.992c1.9,1.8,4.4,2.899,7.1,2.899s5.3-1.1,7.2-2.999l25.2-25.992c3.8-3.899,3.7-10.097-0.1-13.996L378.4,945.681z      M371.2,989.568l-11.6-11.597l11.6-11.297l11.2,11.297L371.2,989.568z" fill="#ee2a5d"/>
			<path d="M138.1,958.277l-12.3,6.198l-2.3-13.496c-0.9-5.498-6.1-9.097-11.5-8.198c-4.9,0.8-8.3,4.999-8.3,9.797     c0,0.6,0,1.1,0.1,1.699l2.2,12.796l-12.7-2.199c-5.5-0.9-10.7,2.799-11.6,8.198c-0.1,0.6-0.1,1.1-0.1,1.699     c0,4.699,3.4,8.997,8.3,9.797l13.4,2.299l-6.2,12.396c-0.8,1.5-1.1,2.999-1.1,4.499c0,3.699,2,7.298,5.5,8.997     c1.5,0.8,3,1.1,4.5,1.1v0c3.7,0,7.2-1.999,9.1-5.398l6-11.997l9.2,9.297c3.9,3.899,10.2,3.899,14.1,0     c1.9-1.999,2.9-4.499,2.9-7.098c0-2.599-1-5.099-2.9-7.098l-9.3-9.297l12-5.998c3.5-1.799,5.5-5.299,5.5-8.997     c0-1.5-0.4-3.099-1.1-4.499C149,957.777,143,955.778,138.1,958.277z" fill="#ee2a5d"/>
		</g>
	</g>
</g>
<g>
</g>
<g>
</g>
<g>
</g>
<g>
</g>
<g>
</g>
<g>
</g>
<g>
</g>
<g>
</g>
<g>
</g>
<g>
</g>
<g>
</g>
<g>
</g>
<g>
</g>
<g>
</g>
<g>
</g>
</svg>
