<svg xmlns:dc="http://purl.org/dc/elements/1.1/" xmlns:cc="http://creativecommons.org/ns#" xmlns:rdf="http://www.w3.org/1999/02/22-rdf-syntax-ns#" xmlns:svg="http://www.w3.org/2000/svg" xmlns="http://www.w3.org/2000/svg" xmlns:sodipodi="http://sodipodi.sourceforge.net/DTD/sodipodi-0.dtd" xmlns:inkscape="http://www.inkscape.org/namespaces/inkscape" version="1.1" x="0px" y="0px" viewBox="0 0 100 125"><g transform="translate(0,-952.36218)"><path style="text-indent:0;text-transform:none;direction:ltr;block-progression:tb;baseline-shift:baseline;color:#000000;enable-background:accumulate;" d="m 49.999489,961.36217 c -2.81735,0 -5.37611,1.4104 -6.8125,3.8438 -13.012846,22.1382 -26.08003,44.27563 -39.1249993,66.40623 -1.436733,2.4403 -1.439113,5.4371 0,7.8749 1.46059,2.4721 4.051411,3.882 6.8750003,3.875 l 78.156249,0 c 2.82285,0.01 5.39852,-1.429 6.84375,-3.875 1.44048,-2.4381 1.43809,-5.4344 0,-7.8749 -12.9437,-22.1894 -26.246,-44.19043 -39.125,-66.40623 -1.4364,-2.4334 -3.99515,-3.8438 -6.8125,-3.8438 z m 0,6 c 0.59897,0 1.38161,0.441 1.65625,0.9062 l 39.125,66.40633 c 0.27461,0.466 0.27526,1.2841 0,1.75 -0.27053,0.4578 -1.08697,0.9388 -1.6875,0.9374 l -78.156249,0 c -0.599795,10e-4 -1.4636103,-0.5056 -1.7187503,-0.9374 -0.275135,-0.4661 -0.274483,-1.2838 0,-1.75 L 48.343239,968.26837 c 0.27465,-0.4652 1.0573,-0.9062 1.65625,-0.9062 z m 0,18 c -3.31371,0 -6,2.6863 -6,6 l 1,22.00003 c 0,2.7614 2.23857,5 5,5 2.76143,0 5,-2.2386 5,-5 l 1,-22.00003 c 0,-3.3137 -2.68629,-6 -6,-6 z m 0,35.00003 c -3.86598,0 -7,3.134 -7,7 0,3.8659 3.13402,7 7,7 3.86598,0 7,-3.1341 7,-7 0,-3.866 -3.13402,-7 -7,-7 z" fill="#000000" fill-opacity="1" stroke="none" marker="none" visibility="visible" display="inline" overflow="visible"/></g><text x="0" y="115" fill="#000000" font-size="5px" font-weight="bold" font-family="'Helvetica Neue', Helvetica, Arial-Unicode, Arial, Sans-serif">Created by Alfa Design</text><text x="0" y="120" fill="#000000" font-size="5px" font-weight="bold" font-family="'Helvetica Neue', Helvetica, Arial-Unicode, Arial, Sans-serif">from the Noun Project</text></svg>