<svg xmlns="http://www.w3.org/2000/svg" data-name="Layer 1" viewBox="0 0 100 125" x="0px" y="0px"><title>Artboard 20</title><path d="M40.24,71.5a2.5,2.5,0,0,0,3,4,13,13,0,0,0,2.47-18.15,2.5,2.5,0,0,0-4,3A8,8,0,0,1,40.24,71.5Z"/><path d="M47.13,78.83a2.5,2.5,0,0,0,3,4,21.91,21.91,0,0,0,4.17-30.7,2.5,2.5,0,0,0-4,3,16.9,16.9,0,0,1-3.22,23.69Z"/><path d="M4.91,6c11.42,1.62,17.86,7.83,19.66,19a30.74,30.74,0,0,1,.33,3.52A17.67,17.67,0,0,0,34.45,43.3a3.94,3.94,0,0,1,1.11.74,1.08,1.08,0,0,1-.11,1.29,8.89,8.89,0,0,1-4.39,2.43,2.5,2.5,0,0,0-1.83,2.53l.28,5.79a27.94,27.94,0,0,1-7,.64,4.56,4.56,0,0,0-3.79,1.77A4.49,4.49,0,0,0,18,62.55c.71,2.31,2.86,6.29,9.35,7.74l-.11.45A12.44,12.44,0,0,0,27,75.55a2.41,2.41,0,0,0,.09.31,3.85,3.85,0,0,1-.28,3.23,3.76,3.76,0,0,1-2.61,1.86,43.76,43.76,0,0,1-16.1-.15,2.5,2.5,0,0,0-3,2.46V96.5a2.5,2.5,0,1,0,5,0V86.18a47.67,47.67,0,0,0,15-.32,8.84,8.84,0,0,0,6.75-11.48,9.25,9.25,0,0,1,.25-2.43l.32-1.27a4.18,4.18,0,0,0-3.32-5.13C26,65,23.95,63.68,23,61.74a31.86,31.86,0,0,0,9.86-1.39,2.5,2.5,0,0,0,1.69-2.49l-.29-5.92a12.68,12.68,0,0,0,4.87-3.29,6.06,6.06,0,0,0,.65-7.2,7.36,7.36,0,0,0-3-2.57A12.72,12.72,0,0,1,29.9,28.22a35.56,35.56,0,0,0-.39-4.09C27.37,10.93,19.11,2.94,5.62,1a2.5,2.5,0,0,0-.7,5Z"/><path d="M20.58,34a3,3,0,1,0-3,3A3,3,0,0,0,20.58,34Z"/><path d="M79.42,34a3,3,0,1,0,3-3A3,3,0,0,0,79.42,34Z"/><path d="M94.38,1C80.9,2.94,72.64,10.92,70.49,24.11a35.22,35.22,0,0,0-.39,4.11,12.75,12.75,0,0,1-7,10.7,7.28,7.28,0,0,0-3,2.54,6.06,6.06,0,0,0,.65,7.19,12.71,12.71,0,0,0,4.87,3.29l-.29,5.92c0,.07,0,.13,0,.19a2.53,2.53,0,0,0,0,.26c0,.08,0,.16.05.24s0,.16.06.24.06.15.1.22.06.15.1.21.09.13.14.2l.14.19.17.17.18.16.19.13.21.13.22.09.24.09.24,0,.21,0c5.36.48,7.79,2.7,8.75,3.93a.09.09,0,0,1-.09.08A19.63,19.63,0,0,0,68.46,66h0a2.48,2.48,0,0,0-.43.26l-.11.11a2.51,2.51,0,0,0-.24.22,2.45,2.45,0,0,0-.15.2c0,.06-.09.12-.13.19s-.07.15-.1.22-.07.14-.1.22,0,.15-.06.22a2.46,2.46,0,0,0-.06.24,2.51,2.51,0,0,0,0,.35s0,.09,0,.14a2.48,2.48,0,0,0,.07.5h0l.77,3.09a9.25,9.25,0,0,1,.25,2.43,8.84,8.84,0,0,0,6.75,11.48,47.7,47.7,0,0,0,15,.32V96.5a2.5,2.5,0,0,0,5,0V83.25a2.5,2.5,0,0,0-3-2.46,43.76,43.76,0,0,1-16.1.15,3.76,3.76,0,0,1-2.61-1.86,3.85,3.85,0,0,1-.28-3.23,2.41,2.41,0,0,0,.09-.31,12.44,12.44,0,0,0-.26-4.81l-.21-.83a18.43,18.43,0,0,1,3.84-.43,5.07,5.07,0,0,0,4.52-2.86,5,5,0,0,0-.5-5.2c-1.3-1.71-4.22-4.51-9.91-5.6l.27-5.53a2.5,2.5,0,0,0-1.83-2.53,8.9,8.9,0,0,1-4.39-2.43A1.08,1.08,0,0,1,64.44,44a4.14,4.14,0,0,1,1.16-.77,17.64,17.64,0,0,0,9.5-14.83,30.53,30.53,0,0,1,.34-3.54C77.24,13.79,83.67,7.6,95.09,6a2.5,2.5,0,0,0-.7-5Z"/><text x="0" y="115" fill="#000000" font-size="5px" font-weight="bold" font-family="'Helvetica Neue', Helvetica, Arial-Unicode, Arial, Sans-serif">Created by Gregor Cresnar</text><text x="0" y="120" fill="#000000" font-size="5px" font-weight="bold" font-family="'Helvetica Neue', Helvetica, Arial-Unicode, Arial, Sans-serif">from the Noun Project</text></svg>