<svg xmlns="http://www.w3.org/2000/svg" xmlns:xlink="http://www.w3.org/1999/xlink" version="1.1" x="0px" y="0px" viewBox="0 0 65 81.25" enable-background="new 0 0 65 65" xml:space="preserve"><g><path d="M48.3,43.9l-1-1.4c1.6-1.6,2.7-3.7,3.1-6c0.6-3.1-0.1-6.2-1.9-8.7c-2.2-3.1-5.8-5-9.6-5c-2.4,0-4.7,0.7-6.7,2.1   c-5.3,3.7-6.6,11-2.9,16.3c2.2,3.1,5.8,5,9.6,5c1.6,0,3.2-0.3,4.6-1l1,1.4c-0.7,0.7-0.9,1.8-0.3,2.6l4.3,6.2   c0.6,0.9,1.5,1.5,2.6,1.7c0.2,0,0.5,0.1,0.7,0.1c0.8,0,1.6-0.2,2.3-0.7c0.9-0.6,1.5-1.5,1.7-2.6c0.2-1.1,0-2.1-0.7-3l-4.3-6.2   C50.3,43.7,49.2,43.5,48.3,43.9z M38.9,44.6c-3.3,0-6.5-1.6-8.4-4.4c-3.2-4.6-2.1-11,2.6-14.2c1.7-1.2,3.7-1.8,5.8-1.8   c3.3,0,6.5,1.6,8.4,4.4c1.6,2.2,2.1,4.9,1.7,7.6c-0.5,2.7-2,5-4.2,6.6C43,43.9,41,44.6,38.9,44.6z M54.4,53.5   c-0.1,0.7-0.5,1.3-1.1,1.6c-0.6,0.4-1.2,0.5-1.9,0.4c-0.7-0.1-1.3-0.5-1.6-1.1l-4.3-6.2c-0.2-0.2-0.1-0.6,0.1-0.8l1-0.7l-1.7-2.5   c0.2-0.1,0.5-0.3,0.7-0.4c0.2-0.2,0.4-0.3,0.7-0.5l1.7,2.5l1-0.7c0.1-0.1,0.3-0.1,0.4-0.1c0.1,0,0.3,0.1,0.3,0.2l4.3,6.2   C54.3,52.2,54.5,52.8,54.4,53.5z"/><rect x="48.6" y="48.7" transform="matrix(-0.5707 -0.8212 0.8212 -0.5707 36.907 118.1554)" width="1.5" height="1.5"/><rect x="50.5" y="51.4" transform="matrix(-0.8215 0.5702 -0.5702 -0.8215 123.0338 65.7633)" width="1.5" height="1.5"/><path d="M4.9-0.3v50.9c0,4.8,3.9,8.7,8.7,8.8l46.5,5.9V-0.3H4.9z M17.7,58.4c2.5-1.3,4.3-3.8,4.7-6.7l30.5,11.2L17.7,58.4z    M58.6,63.4L20.9,49.6v1.1c0,4-3.3,7.3-7.3,7.3c-4,0-7.2-3.3-7.2-7.3V1.2h52.2V63.4z"/><rect x="11.4" y="6.5" width="42.2" height="1.5"/><rect x="11.4" y="13.2" width="42.2" height="1.5"/><rect x="11.4" y="19.8" width="42.2" height="1.5"/><rect x="33.5" y="27.5" width="10.3" height="1.5"/><rect x="30.5" y="33.1" width="17.1" height="1.5"/><rect x="33.1" y="38.8" width="10.7" height="1.5"/><rect x="11.4" y="27.5" width="15.6" height="1.5"/><rect x="11.4" y="33.1" width="14.3" height="1.5"/><rect x="11.4" y="38.8" width="15.6" height="1.5"/></g><text x="0" y="80" fill="#000000" font-size="5px" font-weight="bold" font-family="'Helvetica Neue', Helvetica, Arial-Unicode, Arial, Sans-serif">Created by Creative Stall</text><text x="0" y="85" fill="#000000" font-size="5px" font-weight="bold" font-family="'Helvetica Neue', Helvetica, Arial-Unicode, Arial, Sans-serif">from the Noun Project</text></svg>